<mxfile host="app.diagrams.net" modified="2024-03-26T10:45:59.556Z" agent="Mozilla/5.0 (Windows NT 10.0; Win64; x64) AppleWebKit/537.36 (KHTML, like Gecko) Chrome/123.0.0.0 Safari/537.36" etag="-gVQu7VxPSVqgc3vmoVk" version="24.1.0" type="github">
  <diagram name="Page-1" id="2YBvvXClWsGukQMizWep">
    <mxGraphModel dx="1466" dy="739" grid="1" gridSize="10" guides="1" tooltips="1" connect="1" arrows="1" fold="1" page="1" pageScale="1" pageWidth="850" pageHeight="1100" math="0" shadow="0">
      <root>
        <mxCell id="0" />
        <mxCell id="1" parent="0" />
        <mxCell id="aM9ryv3xv72pqoxQDRHE-1" value="Adm:Admin" style="shape=umlLifeline;perimeter=lifelinePerimeter;whiteSpace=wrap;html=1;container=0;dropTarget=0;collapsible=0;recursiveResize=0;outlineConnect=0;portConstraint=eastwest;newEdgeStyle={&quot;edgeStyle&quot;:&quot;elbowEdgeStyle&quot;,&quot;elbow&quot;:&quot;vertical&quot;,&quot;curved&quot;:0,&quot;rounded&quot;:0};" parent="1" vertex="1">
          <mxGeometry x="42" y="40" width="100" height="480" as="geometry" />
        </mxCell>
        <mxCell id="aM9ryv3xv72pqoxQDRHE-2" value="" style="html=1;points=[];perimeter=orthogonalPerimeter;outlineConnect=0;targetShapes=umlLifeline;portConstraint=eastwest;newEdgeStyle={&quot;edgeStyle&quot;:&quot;elbowEdgeStyle&quot;,&quot;elbow&quot;:&quot;vertical&quot;,&quot;curved&quot;:0,&quot;rounded&quot;:0};" parent="aM9ryv3xv72pqoxQDRHE-1" vertex="1">
          <mxGeometry x="45" y="110" width="10" height="280" as="geometry" />
        </mxCell>
        <mxCell id="aM9ryv3xv72pqoxQDRHE-5" value="Clb:Collaborateur" style="shape=umlLifeline;perimeter=lifelinePerimeter;whiteSpace=wrap;html=1;container=0;dropTarget=0;collapsible=0;recursiveResize=0;outlineConnect=0;portConstraint=eastwest;newEdgeStyle={&quot;edgeStyle&quot;:&quot;elbowEdgeStyle&quot;,&quot;elbow&quot;:&quot;vertical&quot;,&quot;curved&quot;:0,&quot;rounded&quot;:0};" parent="1" vertex="1">
          <mxGeometry x="674" y="41" width="100" height="479" as="geometry" />
        </mxCell>
        <mxCell id="n-zNSpfsTMb-PeeRXI1q-17" value="" style="group" vertex="1" connectable="0" parent="1">
          <mxGeometry x="401" y="207" width="540" height="183" as="geometry" />
        </mxCell>
        <mxCell id="n-zNSpfsTMb-PeeRXI1q-15" value="ref" style="shape=umlFrame;whiteSpace=wrap;html=1;pointerEvents=0;width=49;height=20;" vertex="1" parent="n-zNSpfsTMb-PeeRXI1q-17">
          <mxGeometry x="180" width="260" height="183" as="geometry" />
        </mxCell>
        <mxCell id="n-zNSpfsTMb-PeeRXI1q-18" value="" style="group" vertex="1" connectable="0" parent="1">
          <mxGeometry x="15" y="124" width="835" height="436" as="geometry" />
        </mxCell>
        <mxCell id="n-zNSpfsTMb-PeeRXI1q-1" value="opt" style="shape=umlFrame;whiteSpace=wrap;html=1;pointerEvents=0;width=50;height=20;" vertex="1" parent="n-zNSpfsTMb-PeeRXI1q-18">
          <mxGeometry y="-2.725" width="835" height="438.725" as="geometry" />
        </mxCell>
        <mxCell id="n-zNSpfsTMb-PeeRXI1q-14" value="[Authentifier = True]" style="text;html=1;align=center;verticalAlign=middle;resizable=0;points=[];autosize=1;strokeColor=none;fillColor=none;" vertex="1" parent="n-zNSpfsTMb-PeeRXI1q-18">
          <mxGeometry x="135.00365853658536" y="-5.003749999999997" width="130" height="30" as="geometry" />
        </mxCell>
        <mxCell id="n-zNSpfsTMb-PeeRXI1q-28" value="" style="group" vertex="1" connectable="0" parent="n-zNSpfsTMb-PeeRXI1q-18">
          <mxGeometry x="5.09" y="100" width="366.59" height="199" as="geometry" />
        </mxCell>
        <mxCell id="n-zNSpfsTMb-PeeRXI1q-29" value="opt" style="shape=umlFrame;whiteSpace=wrap;html=1;pointerEvents=0;width=50;height=20;" vertex="1" parent="n-zNSpfsTMb-PeeRXI1q-28">
          <mxGeometry x="5.090064344644045" width="361.4945697338656" height="183.08134618636902" as="geometry" />
        </mxCell>
        <mxCell id="n-zNSpfsTMb-PeeRXI1q-70" value="" style="html=1;points=[];perimeter=orthogonalPerimeter;outlineConnect=0;targetShapes=umlLifeline;portConstraint=eastwest;newEdgeStyle={&quot;edgeStyle&quot;:&quot;elbowEdgeStyle&quot;,&quot;elbow&quot;:&quot;vertical&quot;,&quot;curved&quot;:0,&quot;rounded&quot;:0};" vertex="1" parent="n-zNSpfsTMb-PeeRXI1q-28">
          <mxGeometry x="74.91" y="83.92" width="10" height="46.08" as="geometry" />
        </mxCell>
        <mxCell id="n-zNSpfsTMb-PeeRXI1q-32" value="" style="html=1;points=[];perimeter=orthogonalPerimeter;outlineConnect=0;targetShapes=umlLifeline;portConstraint=eastwest;newEdgeStyle={&quot;edgeStyle&quot;:&quot;elbowEdgeStyle&quot;,&quot;elbow&quot;:&quot;vertical&quot;,&quot;curved&quot;:0,&quot;rounded&quot;:0};" vertex="1" parent="n-zNSpfsTMb-PeeRXI1q-18">
          <mxGeometry x="550.0039024390244" y="167.5875" width="10.182926829268293" height="21.118750000000002" as="geometry" />
        </mxCell>
        <mxCell id="n-zNSpfsTMb-PeeRXI1q-54" value="" style="endArrow=open;endFill=1;html=1;rounded=0;" edge="1" parent="n-zNSpfsTMb-PeeRXI1q-18" target="n-zNSpfsTMb-PeeRXI1q-70">
          <mxGeometry width="160" relative="1" as="geometry">
            <mxPoint x="549" y="186" as="sourcePoint" />
            <mxPoint x="85" y="186" as="targetPoint" />
          </mxGeometry>
        </mxCell>
        <mxCell id="n-zNSpfsTMb-PeeRXI1q-55" value="Return" style="edgeLabel;html=1;align=center;verticalAlign=middle;resizable=0;points=[];" vertex="1" connectable="0" parent="n-zNSpfsTMb-PeeRXI1q-54">
          <mxGeometry x="0.0744" relative="1" as="geometry">
            <mxPoint x="-23" y="3" as="offset" />
          </mxGeometry>
        </mxCell>
        <mxCell id="n-zNSpfsTMb-PeeRXI1q-59" value="" style="endArrow=open;endFill=1;html=1;rounded=0;" edge="1" parent="n-zNSpfsTMb-PeeRXI1q-18" source="n-zNSpfsTMb-PeeRXI1q-70">
          <mxGeometry width="160" relative="1" as="geometry">
            <mxPoint x="95" y="226" as="sourcePoint" />
            <mxPoint x="320" y="225.78125" as="targetPoint" />
          </mxGeometry>
        </mxCell>
        <mxCell id="n-zNSpfsTMb-PeeRXI1q-64" value="AffecterOm(NumBc)" style="edgeLabel;html=1;align=center;verticalAlign=middle;resizable=0;points=[];" vertex="1" connectable="0" parent="n-zNSpfsTMb-PeeRXI1q-59">
          <mxGeometry x="-0.0482" relative="1" as="geometry">
            <mxPoint x="1" as="offset" />
          </mxGeometry>
        </mxCell>
        <mxCell id="n-zNSpfsTMb-PeeRXI1q-16" value="Authentifier" style="text;html=1;align=center;verticalAlign=middle;resizable=0;points=[];autosize=1;strokeColor=none;fillColor=none;" vertex="1" parent="n-zNSpfsTMb-PeeRXI1q-18">
          <mxGeometry x="633.9953283302065" y="114.21640853658538" width="80" height="30" as="geometry" />
        </mxCell>
        <mxCell id="aM9ryv3xv72pqoxQDRHE-6" value="" style="html=1;points=[];perimeter=orthogonalPerimeter;outlineConnect=0;targetShapes=umlLifeline;portConstraint=eastwest;newEdgeStyle={&quot;edgeStyle&quot;:&quot;elbowEdgeStyle&quot;,&quot;elbow&quot;:&quot;vertical&quot;,&quot;curved&quot;:0,&quot;rounded&quot;:0};" parent="n-zNSpfsTMb-PeeRXI1q-18" vertex="1">
          <mxGeometry x="704" y="20" width="10" height="240" as="geometry" />
        </mxCell>
        <mxCell id="n-zNSpfsTMb-PeeRXI1q-22" value="" style="group" vertex="1" connectable="0" parent="n-zNSpfsTMb-PeeRXI1q-18">
          <mxGeometry x="65" y="23" width="680" height="64" as="geometry" />
        </mxCell>
        <mxCell id="n-zNSpfsTMb-PeeRXI1q-23" value="ref" style="shape=umlFrame;whiteSpace=wrap;html=1;pointerEvents=0;width=50;height=20;" vertex="1" parent="n-zNSpfsTMb-PeeRXI1q-22">
          <mxGeometry width="680" height="51.2" as="geometry" />
        </mxCell>
        <mxCell id="n-zNSpfsTMb-PeeRXI1q-24" value="ValiderUser" style="text;html=1;align=center;verticalAlign=middle;resizable=0;points=[];autosize=1;strokeColor=none;fillColor=none;" vertex="1" parent="n-zNSpfsTMb-PeeRXI1q-22">
          <mxGeometry x="294.9972318720706" y="12.803121951219515" width="90" height="30" as="geometry" />
        </mxCell>
        <mxCell id="n-zNSpfsTMb-PeeRXI1q-19" value="Bc:Bon de Caisse" style="shape=umlLifeline;perimeter=lifelinePerimeter;whiteSpace=wrap;html=1;container=0;dropTarget=0;collapsible=0;recursiveResize=0;outlineConnect=0;portConstraint=eastwest;newEdgeStyle={&quot;edgeStyle&quot;:&quot;elbowEdgeStyle&quot;,&quot;elbow&quot;:&quot;vertical&quot;,&quot;curved&quot;:0,&quot;rounded&quot;:0};" vertex="1" parent="1">
          <mxGeometry x="290" y="40" width="100" height="480" as="geometry" />
        </mxCell>
        <mxCell id="n-zNSpfsTMb-PeeRXI1q-20" value="" style="html=1;points=[];perimeter=orthogonalPerimeter;outlineConnect=0;targetShapes=umlLifeline;portConstraint=eastwest;newEdgeStyle={&quot;edgeStyle&quot;:&quot;elbowEdgeStyle&quot;,&quot;elbow&quot;:&quot;vertical&quot;,&quot;curved&quot;:0,&quot;rounded&quot;:0};" vertex="1" parent="n-zNSpfsTMb-PeeRXI1q-19">
          <mxGeometry x="45" y="200" width="10" height="110" as="geometry" />
        </mxCell>
        <mxCell id="n-zNSpfsTMb-PeeRXI1q-31" value="Om:Ordre de Mission" style="shape=umlLifeline;perimeter=lifelinePerimeter;whiteSpace=wrap;html=1;container=0;dropTarget=0;collapsible=0;recursiveResize=0;outlineConnect=0;portConstraint=eastwest;newEdgeStyle={&quot;edgeStyle&quot;:&quot;elbowEdgeStyle&quot;,&quot;elbow&quot;:&quot;vertical&quot;,&quot;curved&quot;:0,&quot;rounded&quot;:0};" vertex="1" parent="1">
          <mxGeometry x="510" y="40" width="120" height="480" as="geometry" />
        </mxCell>
        <mxCell id="n-zNSpfsTMb-PeeRXI1q-67" value="" style="endArrow=open;endFill=1;html=1;rounded=0;entryX=0.1;entryY=0.996;entryDx=0;entryDy=0;entryPerimeter=0;" edge="1" parent="1">
          <mxGeometry width="160" relative="1" as="geometry">
            <mxPoint x="97" y="376.2062799999999" as="sourcePoint" />
            <mxPoint x="720" y="376.2062799999999" as="targetPoint" />
          </mxGeometry>
        </mxCell>
        <mxCell id="n-zNSpfsTMb-PeeRXI1q-68" value="Notifier le Bénéficiaire" style="edgeLabel;html=1;align=center;verticalAlign=middle;resizable=0;points=[];" vertex="1" connectable="0" parent="n-zNSpfsTMb-PeeRXI1q-67">
          <mxGeometry x="-0.0482" relative="1" as="geometry">
            <mxPoint x="2" as="offset" />
          </mxGeometry>
        </mxCell>
        <mxCell id="n-zNSpfsTMb-PeeRXI1q-56" value="" style="endArrow=open;endFill=1;html=1;rounded=0;entryX=0.047;entryY=0.486;entryDx=0;entryDy=0;entryPerimeter=0;" edge="1" parent="1">
          <mxGeometry width="160" relative="1" as="geometry">
            <mxPoint x="97" y="242.0200000000001" as="sourcePoint" />
            <mxPoint x="335.47" y="242.0200000000001" as="targetPoint" />
          </mxGeometry>
        </mxCell>
        <mxCell id="n-zNSpfsTMb-PeeRXI1q-66" value="CréerBc(NumBc)" style="edgeLabel;html=1;align=center;verticalAlign=middle;resizable=0;points=[];" vertex="1" connectable="0" parent="n-zNSpfsTMb-PeeRXI1q-56">
          <mxGeometry x="0.0786" y="-1" relative="1" as="geometry">
            <mxPoint as="offset" />
          </mxGeometry>
        </mxCell>
        <mxCell id="aM9ryv3xv72pqoxQDRHE-9" value="Créer Om" style="html=1;verticalAlign=bottom;endArrow=block;edgeStyle=elbowEdgeStyle;elbow=vertical;curved=0;rounded=0;" parent="1" source="aM9ryv3xv72pqoxQDRHE-2" target="n-zNSpfsTMb-PeeRXI1q-31" edge="1">
          <mxGeometry x="-0.1663" y="-8" relative="1" as="geometry">
            <mxPoint x="113.77439024390245" y="291.5875" as="sourcePoint" />
            <Array as="points">
              <mxPoint x="205.4207317073171" y="291.5875" />
            </Array>
            <mxPoint x="560" y="291.5875" as="targetPoint" />
            <mxPoint as="offset" />
          </mxGeometry>
        </mxCell>
        <mxCell id="n-zNSpfsTMb-PeeRXI1q-71" value="" style="endArrow=open;endFill=1;html=1;rounded=0;entryX=0.047;entryY=0.486;entryDx=0;entryDy=0;entryPerimeter=0;" edge="1" parent="1">
          <mxGeometry width="160" relative="1" as="geometry">
            <mxPoint x="98" y="270.0000000000001" as="sourcePoint" />
            <mxPoint x="336.47" y="270.0000000000001" as="targetPoint" />
          </mxGeometry>
        </mxCell>
        <mxCell id="n-zNSpfsTMb-PeeRXI1q-72" value="&lt;span style=&quot;font-size: 12px; background-color: rgb(251, 251, 251);&quot;&gt;Solder(Bc)&lt;/span&gt;" style="edgeLabel;html=1;align=center;verticalAlign=middle;resizable=0;points=[];" vertex="1" connectable="0" parent="n-zNSpfsTMb-PeeRXI1q-71">
          <mxGeometry x="0.0786" y="-1" relative="1" as="geometry">
            <mxPoint as="offset" />
          </mxGeometry>
        </mxCell>
      </root>
    </mxGraphModel>
  </diagram>
</mxfile>
